<svg id="Capa_1" enable-background="new 0 0 512 512" height="512" viewBox="0 0 512 512" width="512" xmlns="http://www.w3.org/2000/svg"><g><g><path d="m256 502.419c138.273 0 255.814-111.449 255.814-255.709-4.892-137.079-117.541-246.71-255.814-246.71s-250.922 109.631-255.815 246.711c0 144.259 117.542 255.708 255.815 255.708z" fill="#eef3fb"/><path d="m256 415.605c90.321 0 168.928-74.143 168.928-168.895-4.823-89.117-78.607-159.896-168.928-159.896s-164.105 70.778-168.928 159.896c0 105.954 78.607 168.895 168.928 168.895z" fill="#d4e6fd"/><path d="m256 406.605c-90.321 0-164.105-70.778-168.928-159.895-.166 3.076-.257 6.173-.257 9.29 0 93.439 75.747 169.185 169.186 169.185 93.438 0 169.185-75.747 169.185-169.185 0-3.118-.091-6.214-.257-9.29-4.824 89.117-78.608 159.895-168.929 159.895z" fill="#cbdff9"/><path d="m221.511 261.895c2.283 75.945 47.232 116.181 103.194 111.791 47.956-3.762 99.875-47.615 117.271-105.456 3.84-12.767 5.747-27.552 5.747-42.053-3.437-46.837-34-82.491-101.283-82.491-59.433 0-120.699 52.269-124.929 118.209z" fill="#fff"/><path d="m294.061 240.678c0 28.338 23.479 47.095 46.469 47.095s46.469-22.268 46.469-47.095c-4.319-21.721-23.479-38.095-46.469-38.095s-42.15 16.374-46.469 38.095z" fill="#f1cd65"/><path d="m107.639 404.9c15.707 0 28.44-18.859 28.44-37.44v-240.221c0-15.707-12.733-28.44-28.44-28.44s-28.44 12.733-28.44 28.44v240.221c0 20.606 12.733 37.44 28.44 37.44z" fill="#ae7b6a"/><path d="m164.519 404.9c15.707 0 28.44-14.018 28.44-37.44v-240.221c0-15.707-12.733-28.44-28.44-28.44s-28.44 12.733-28.44 28.44v240.221c0 21.927 12.733 37.44 28.44 37.44z" fill="#9e6f62"/><path d="m256 493.419c-138.273 0-250.922-109.631-255.814-246.71-.111 3.086-.186 6.179-.186 9.291 0 141.385 114.615 256 256 256s256-114.615 256-256c0-3.112-.076-6.205-.186-9.29-4.892 137.079-117.541 246.709-255.814 246.709z" fill="#e2ecf9"/><path d="m440.647 263.741c-17.396 57.841-67.987 97.182-115.943 100.944-55.962 4.39-99.446-37.241-103.194-102.791-.069 1.074-.124 2.151-.162 3.233-2.638 74.308 43.14 122.862 103.356 118.139 47.956-3.762 98.547-43.103 115.943-100.944 5.844-19.43 8.365-38.574 7.075-56.146-.835 12.156-3.235 24.798-7.075 37.565z" fill="#eef3ff"/><path d="m340.53 278.773c-22.99 0-42.15-16.374-46.469-38.095-.598 3.005-.916 6.11-.916 9.29 0 26.17 21.215 47.385 47.385 47.385s47.385-21.215 47.385-47.385c0-3.18-.319-6.286-.916-9.29-4.318 21.721-23.479 38.095-46.469 38.095z" fill="#ebb34f"/><path d="m164.519 395.9c-15.707 0-28.44-12.733-28.44-28.44v18.581c0 15.707 12.733 28.44 28.44 28.44s28.44-12.733 28.44-28.44v-18.581c0 15.707-12.733 28.44-28.44 28.44z" fill="#856155"/><path d="m107.639 395.9c-15.707 0-28.44-12.733-28.44-28.44v18.581c0 15.707 12.733 28.44 28.44 28.44s28.44-12.733 28.44-28.44v-18.581c0 15.707-12.733 28.44-28.44 28.44z" fill="#a36d60"/></g></g></svg>